 <svg  version="1.0" xmlns="http://www.w3.org/2000/svg"  width="162.000000pt" height="171.000000pt" viewBox="0 0 162.000000 171.000000"  preserveAspectRatio="xMidYMid meet">  <g transform="translate(0.000000,171.000000) scale(0.050000,-0.050000)" fill="#000000" stroke="none"> <path d="M1260 2700 c0 -40 -10 -60 -30 -60 -36 0 -40 33 -5 47 14 5 0 11 -30 11 -48 2 -55 -5 -55 -58 0 -49 -8 -60 -45 -59 -44 0 -44 1 -6 30 36 27 33 29 -45 29 -77 0 -84 -4 -84 -51 0 -30 9 -46 20 -39 12 7 16 21 10 30 -6 9 -2 23 10 30 11 7 20 -9 20 -39 0 -43 -9 -51 -60 -51 -33 0 -60 -9 -60 -19 0 -11 14 -15 30 -8 17 6 30 1 30 -11 0 -12 -35 -22 -82 -22 -65 0 -80 6 -71 30 7 17 3 30 -8 30 -10 0 -19 -33 -19 -74 0 -69 2 -71 29 -35 28 37 30 37 30 -16 1 -36 -9 -55 -29 -55 -22 0 -30 -23 -30 -90 0 -67 -8 -90 -30 -90 -21 0 -30 -20 -29 -65 1 -59 3 -61 20 -20 25 64 39 56 39 -25 0 -64 -5 -70 -60 -70 -60 0 -60 0 -60 -120 0 -93 7 -120 30 -120 17 0 30 -13 30 -30 0 -16 14 -30 30 -30 17 0 30 -13 30 -30 0 -24 30 -30 150 -30 83 0 150 9 150 19 0 11 -13 15 -30 8 -16 -6 -30 -1 -30 11 0 12 14 22 30 22 17 0 30 14 30 30 0 17 14 30 30 30 17 0 30 14 30 30 0 17 14 30 30 30 20 0 30 20 30 60 0 58 3 60 90 60 67 0 90 8 90 30 0 17 14 30 30 30 17 0 30 14 30 30 0 17 14 30 30 30 36 0 40 -33 5 -47 -20 -8 -20 -10 0 -11 37 -3 32 -122 -5 -122 -16 0 -30 -13 -30 -30 0 -16 -13 -30 -30 -30 -20 0 -30 -20 -30 -60 0 -33 -9 -60 -20 -60 -11 0 -20 15 -20 33 0 19 -6 28 -13 21 -7 -8 -25 -4 -40 9 -21 17 -27 13 -27 -21 0 -24 13 -42 30 -42 17 0 30 -13 30 -30 0 -16 14 -30 30 -30 23 0 30 -27 30 -120 0 -93 -7 -120 -30 -120 -16 0 -30 14 -30 30 0 17 -13 30 -30 30 -16 0 -30 14 -30 30 0 17 -13 30 -30 30 -16 0 -30 14 -30 30 0 23 -23 29 -95 28 -52 -2 -79 -7 -60 -12 77 -20 28 -46 -85 -46 -93 0 -120 7 -120 30 0 20 -20 30 -60 30 -40 0 -60 10 -60 30 0 17 -13 30 -30 30 -16 0 -30 14 -30 30 0 17 -13 30 -30 30 -16 0 -30 14 -30 30 0 17 -13 30 -30 30 -22 0 -30 23 -30 90 0 67 -8 90 -30 90 -16 0 -30 -13 -30 -30 0 -16 -13 -30 -30 -30 -24 0 -30 -33 -30 -180 0 -147 6 -180 30 -180 17 0 30 -13 30 -30 0 -16 14 -30 30 -30 20 0 30 -20 30 -60 0 -33 9 -60 21 -60 22 0 4 142 -20 160 -8 6 -20 28 -29 49 -12 34 -17 35 -33 10 -13 -20 -18 -2 -16 61 1 50 6 74 11 55 13 -49 42 -44 52 10 5 25 10 -2 11 -60 3 -103 4 -105 63 -105 60 0 60 0 60 -120 0 -135 27 -164 36 -38 7 111 11 126 34 143 43 31 50 8 49 -170 0 -171 -3 -181 -29 -135 l-29 50 0 -75 c-1 -54 8 -75 29 -75 20 0 30 -20 30 -60 0 -40 -10 -60 -30 -60 -16 0 -30 -13 -30 -30 0 -20 -20 -30 -60 -30 -40 0 -60 10 -60 30 0 17 -13 30 -30 30 -20 0 -30 20 -30 60 0 33 -10 60 -21 60 -12 0 -16 8 -10 19 6 10 3 24 -9 31 -12 8 -21 -27 -22 -94 -2 -105 -2 -105 -22 -36 -11 38 -15 99 -9 135 6 36 2 65 -8 65 -11 0 -19 -67 -19 -150 l0 -150 60 0 c33 0 60 -9 60 -19 0 -11 -14 -15 -30 -8 -17 6 -30 1 -30 -11 0 -15 64 -21 195 -20 107 2 177 7 155 12 -86 21 -76 46 21 49 62 2 78 6 42 11 -36 6 -53 18 -46 35 5 14 0 36 -13 49 -16 16 5 22 82 22 79 0 104 7 104 30 0 17 -13 30 -30 30 -16 0 -30 14 -30 32 0 24 -13 28 -58 18 -35 -7 -64 -3 -72 10 -21 35 -27 120 -7 120 9 0 17 41 17 90 0 67 8 90 30 90 20 0 30 -20 30 -60 0 -58 3 -60 90 -60 67 0 90 8 90 30 0 17 -13 30 -30 30 -16 0 -30 14 -30 30 0 20 20 30 60 30 42 0 60 -10 60 -32 0 -25 13 -30 55 -21 30 6 44 7 30 1 -33 -15 -32 -44 5 -81 17 -16 30 -20 30 -8 0 11 14 21 30 21 17 0 30 8 30 18 0 11 28 25 61 32 42 9 58 23 51 42 -6 16 2 28 19 28 33 0 40 -51 9 -70 -30 -19 -24 -50 10 -50 17 0 30 -13 30 -30 0 -20 20 -30 60 -30 40 0 60 10 60 30 0 17 14 30 30 30 17 0 30 14 30 30 0 17 14 30 30 30 17 0 30 -13 30 -30 0 -20 20 -30 60 -30 40 0 60 -10 60 -30 0 -16 14 -30 30 -30 20 0 30 -20 30 -60 0 -33 10 -60 22 -60 12 0 17 14 11 30 -9 22 2 30 38 30 30 0 49 -11 49 -30 0 -16 -13 -30 -30 -30 -23 0 -30 -27 -30 -120 0 -93 -7 -120 -30 -120 -16 0 -30 -13 -30 -30 0 -16 -13 -30 -30 -30 -16 0 -30 -13 -30 -30 0 -16 -13 -30 -30 -30 -16 0 -30 -13 -30 -30 0 -20 -20 -30 -60 -30 -40 0 -60 -10 -60 -30 0 -24 -30 -30 -150 -30 -82 0 -150 -9 -150 -19 0 -11 -32 -16 -71 -13 -85 8 -117 32 -42 32 34 0 53 11 53 30 0 23 27 30 120 30 93 0 120 7 120 30 0 20 20 30 60 30 40 0 60 10 60 30 0 17 14 30 30 30 20 0 30 20 30 60 0 40 10 60 30 60 24 0 30 30 30 150 0 120 -6 150 -30 150 -16 0 -30 14 -30 30 0 17 -13 30 -30 30 -16 0 -30 -14 -30 -31 0 -16 14 -35 30 -42 17 -6 30 -19 30 -29 0 -10 -13 -18 -30 -18 -16 0 -30 -13 -30 -30 0 -16 -13 -30 -30 -30 -16 0 -30 14 -30 30 0 17 -13 30 -28 30 -16 0 -33 11 -38 25 -5 15 -16 18 -26 7 -11 -10 -8 -21 7 -26 15 -6 25 -45 25 -100 l0 -90 -90 7 c-49 4 -90 0 -90 -8 0 -8 -10 -15 -21 -15 -12 0 -16 8 -10 19 6 10 3 24 -9 31 -11 7 -20 -9 -20 -39 l0 -51 189 0 c160 0 188 -5 178 -30 -9 -24 -56 -30 -249 -30 -198 0 -238 -5 -238 -30 0 -22 24 -30 93 -30 109 0 107 -17 -4 -31 -110 -14 -111 -29 -2 -29 51 0 93 -9 93 -19 0 -11 -13 -15 -30 -8 -16 6 -30 1 -30 -11 0 -12 -27 -22 -60 -22 -119 0 -85 -119 35 -122 52 -2 79 -7 60 -12 -76 -20 -43 -106 40 -104 l75 2 -70 22 -70 23 85 7 c58 4 85 16 85 35 0 22 29 29 120 29 93 0 120 7 120 30 0 25 37 30 210 30 l210 0 0 60 c0 53 7 60 60 60 33 0 60 7 60 17 0 9 -27 12 -60 7 -36 -5 -60 0 -60 14 0 12 -13 22 -30 22 -16 0 -30 -13 -30 -30 0 -16 -13 -30 -30 -30 -16 0 -30 -9 -30 -20 0 -11 -27 -20 -60 -20 -33 0 -60 9 -60 20 0 11 27 20 60 20 40 0 60 10 60 30 0 17 14 30 30 30 25 0 30 37 30 210 0 173 -5 210 -30 210 -16 0 -30 14 -30 30 0 17 -13 30 -30 30 -16 0 -30 14 -30 30 0 20 20 30 60 30 40 0 60 -10 60 -30 0 -16 14 -30 30 -30 20 0 30 -20 30 -60 0 -40 10 -60 30 -60 23 0 30 -27 30 -120 0 -93 -7 -120 -30 -120 -20 0 -30 -20 -30 -60 0 -58 3 -60 90 -60 l90 0 0 72 c0 63 -4 69 -30 48 -25 -21 -30 -18 -30 18 0 33 12 42 60 42 52 0 60 7 59 55 -1 53 -2 53 -20 10 -26 -66 -39 -55 -39 35 0 45 10 80 22 80 12 0 17 -13 11 -30 -7 -16 -3 -30 8 -30 10 0 19 14 19 30 0 17 10 30 22 30 12 0 17 -13 11 -30 -7 -16 -3 -30 8 -30 10 0 19 27 19 60 0 60 -28 81 -47 35 -5 -14 -11 13 -11 60 l-2 85 120 0 c93 0 120 7 120 30 0 19 19 30 52 30 38 0 49 -8 41 -30 -7 -16 -3 -30 8 -30 10 0 19 54 19 120 0 66 -8 120 -17 120 -10 0 -13 -22 -8 -48 5 -27 -1 -65 -12 -85 -19 -33 -22 -31 -22 18 -1 66 -35 73 -47 10 l-9 -45 -2 45 c-3 46 -43 65 -43 20 -1 -37 -96 -120 -125 -108 -15 6 -11 10 10 11 19 1 35 16 35 34 0 20 -11 28 -30 21 -24 -9 -30 6 -30 78 0 99 12 112 39 44 18 -43 19 -43 20 10 1 36 -9 55 -29 55 -16 0 -30 14 -30 30 0 17 -13 30 -30 30 -22 0 -30 23 -30 90 0 67 -8 90 -30 90 -16 0 -30 14 -30 30 0 17 -13 30 -30 30 -16 0 -30 14 -30 30 0 24 -30 30 -155 28 -85 -2 -139 -7 -120 -12 57 -15 40 -46 -25 -46 -40 0 -60 -10 -60 -30 0 -16 -13 -30 -30 -30 -20 0 -30 -20 -30 -60 0 -58 -3 -60 -90 -60 -87 0 -90 2 -90 60 0 40 -10 60 -30 60 -22 0 -30 23 -30 90 l0 90 -210 0 c-173 0 -210 -5 -210 -30 0 -19 -19 -30 -54 -30 -40 0 -48 6 -32 22 13 13 21 33 18 45 -3 13 -2 16 3 8 15 -27 48 -16 86 30 33 39 38 40 38 9 1 -29 8 -32 40 -15 65 35 441 27 441 -9 0 -24 30 -30 150 -30 83 0 150 9 150 19 0 11 -13 15 -30 8 -16 -6 -30 -1 -30 11 0 14 54 22 150 22 120 0 150 -6 150 -30 0 -16 14 -30 30 -30 17 0 30 -13 30 -30 0 -16 15 -30 32 -30 22 0 29 -12 23 -37 -8 -29 -1 -36 28 -28 39 10 59 305 20 305 -10 0 -15 -27 -11 -60 4 -33 -2 -60 -12 -60 -11 0 -20 14 -20 30 0 17 -13 30 -30 30 -16 0 -30 14 -30 30 0 24 -30 30 -150 30 -138 0 -199 24 -115 46 19 5 6 10 -30 12 -45 1 -65 -7 -65 -28 0 -20 -20 -30 -60 -30 -40 0 -60 10 -60 30 0 17 -13 30 -30 30 -20 0 -30 20 -30 60 0 40 10 60 30 60 20 0 30 20 30 60 0 53 -7 60 -60 60 -40 0 -60 10 -60 30 0 25 -39 30 -225 31 -134 1 -209 8 -185 18 22 9 110 13 195 8 94 -4 155 1 155 13 0 11 -27 20 -60 20 -33 0 -60 10 -60 22 0 12 14 17 30 11 17 -7 30 -3 30 8 0 11 -77 19 -180 19 l-180 0 0 -60z m260 8 c0 -4 -52 -7 -115 -7 -66 1 -100 8 -79 16 35 14 194 6 194 -9z m245 -181 c-14 -6 -25 -23 -25 -39 0 -15 -13 -28 -30 -28 -42 0 -38 -58 5 -75 81 -30 110 -95 50 -111 -27 -7 -25 -10 9 -12 63 -3 148 -45 140 -69 -11 -35 -54 -38 -54 -5 0 18 -13 32 -30 32 -16 0 -30 -13 -30 -30 0 -16 -13 -30 -30 -30 -16 0 -30 14 -30 30 0 25 -43 30 -270 30 -227 0 -270 -5 -270 -30 0 -20 -20 -30 -60 -30 -60 0 -60 0 -60 -120 0 -93 7 -120 30 -120 20 0 30 -20 30 -60 0 -40 -10 -60 -30 -60 -16 0 -30 14 -30 30 0 17 -13 30 -30 30 -16 0 -30 14 -30 30 0 17 -13 30 -30 30 -20 0 -30 20 -30 60 0 40 -10 60 -30 60 -23 0 -30 27 -30 120 0 93 7 120 30 120 20 0 30 20 30 60 0 40 10 60 30 60 17 0 30 14 30 30 0 20 20 30 60 30 40 0 60 10 60 30 0 24 33 30 180 30 147 0 180 -6 180 -30 0 -16 14 -30 30 -30 17 0 30 -13 30 -30 0 -16 14 -30 30 -30 17 0 30 -13 30 -30 0 -16 -13 -30 -30 -30 -16 0 -30 -9 -30 -21 0 -26 62 6 99 50 20 24 20 31 1 31 -14 0 -19 13 -12 32 9 22 4 29 -16 22 -19 -8 -25 0 -18 26 7 24 33 41 73 46 95 12 105 12 78 1z m-865 -529 c0 -10 -13 -18 -30 -18 -16 0 -30 -13 -30 -30 0 -19 -19 -30 -51 -30 l-50 0 42 58 c41 54 119 67 119 20z m1245 -98 c28 -45 74 -53 77 -15 1 20 3 20 11 0 6 -14 28 -25 49 -25 29 0 38 -14 38 -60 0 -46 9 -60 38 -60 21 0 43 -13 49 -30 8 -20 -1 -30 -28 -30 -50 0 -51 -34 -1 -49 21 -7 44 -26 50 -43 16 -41 -7 -131 -30 -117 -10 6 -38 -32 -62 -85 -25 -53 -47 -99 -49 -103 -2 -4 -20 3 -40 15 -34 19 -34 21 -2 21 25 1 35 17 35 61 0 40 10 60 30 60 22 0 30 23 30 90 0 67 -8 90 -30 90 -16 0 -30 -13 -30 -30 0 -16 -9 -30 -20 -30 -11 0 -20 -13 -20 -30 0 -16 14 -30 30 -30 39 0 38 -6 -10 -85 -22 -36 -40 -54 -40 -40 0 14 -13 25 -30 25 -25 0 -30 36 -30 200 0 164 -5 200 -30 200 -20 0 -30 20 -30 60 0 40 -10 60 -30 60 -20 0 -30 -20 -30 -60 0 -40 10 -60 30 -60 24 0 30 -34 30 -184 0 -166 -3 -180 -29 -145 -28 37 -30 37 -30 -16 -1 -60 -30 -74 -49 -23 -7 17 -12 80 -12 140 l0 108 -125 2 c-69 0 -112 6 -96 13 17 6 57 37 90 68 58 54 61 55 71 16 16 -65 49 -55 56 16 6 56 0 65 -38 65 -41 0 -42 3 -12 35 47 52 187 55 219 5z m-1325 -20 c14 22 19 8 20 -55 0 -47 -9 -85 -19 -85 -11 0 -15 14 -8 30 8 21 -2 30 -31 30 -27 0 -42 13 -42 37 0 49 23 70 44 38 12 -20 20 -19 36 5z m800 -40 c20 -37 15 -40 -69 -40 -50 0 -91 9 -91 20 0 11 23 20 50 20 28 0 50 9 50 20 0 34 38 22 60 -20z m296 -231 c2 -32 -7 -49 -26 -49 -17 0 -30 14 -30 30 0 17 -13 30 -30 30 -54 0 -31 30 26 34 46 3 56 -5 60 -45z m-236 -150 c0 -47 -94 -137 -144 -138 -67 -2 -54 35 18 48 56 11 67 19 45 34 -22 15 -23 22 -4 30 14 6 25 23 25 39 0 15 14 28 30 28 17 0 30 -18 30 -41z m300 -49 c0 -20 -20 -30 -60 -30 -40 0 -60 10 -60 30 0 20 20 30 60 30 40 0 60 -10 60 -30z m144 -707 c-40 -25 -264 -29 -264 -4 0 13 57 21 145 21 84 0 134 -8 119 -17z"/> <path d="M1255 2386 c36 -5 90 -5 120 0 30 4 1 8 -65 8 -66 0 -91 -4 -55 -8z"/> <path d="M1080 2229 c0 -46 3 -49 30 -22 17 17 30 40 30 52 0 11 -13 21 -30 21 -19 0 -30 -19 -30 -51z"/> <path d="M1807 2737 c27 -16 31 -26 14 -37 -18 -10 -16 -18 7 -27 24 -9 32 1 32 38 0 38 -10 49 -45 48 -42 0 -43 -2 -8 -22z"/> <path d="M2040 2410 c0 -31 11 -50 30 -50 17 0 30 18 30 42 0 29 9 39 30 31 17 -7 30 -3 30 8 0 10 -27 19 -60 19 -51 0 -60 -8 -60 -50z"/> <path d="M1686 2018 c-12 -12 -17 -39 -11 -60 11 -45 65 -52 65 -8 0 17 14 30 30 30 17 0 30 14 30 30 0 35 -81 41 -114 8z"/> <path d="M2460 1902 c0 -44 11 -83 25 -89 20 -8 20 -10 0 -11 -34 -3 -31 -52 5 -82 25 -21 30 -19 30 11 0 34 2 34 29 -2 27 -36 30 -29 30 76 1 89 -6 115 -29 115 -16 0 -30 14 -30 30 0 17 -13 30 -30 30 -22 0 -30 -22 -30 -78z"/> <path d="M300 1560 c0 -143 6 -180 29 -180 15 0 32 -16 37 -35 8 -31 10 -31 12 -1 1 18 -11 47 -28 63 -22 23 -28 67 -24 181 4 84 -1 152 -10 152 -9 0 -16 -81 -16 -180z"/> <path d="M360 1590 c0 -82 7 -150 15 -150 8 0 15 67 15 150 0 82 -7 150 -15 150 -8 0 -15 -67 -15 -150z"/> <path d="M2671 1668 c8 -102 29 -110 29 -11 0 46 -8 83 -17 83 -10 0 -15 -32 -12 -72z"/> <path d="M2853 1450 c2 -60 -5 -110 -15 -110 -10 0 -18 38 -18 83 0 103 -11 95 -25 -18 -10 -79 -8 -85 37 -85 45 0 48 7 48 120 0 66 -7 120 -15 120 -8 0 -14 -49 -12 -110z"/> <path d="M2914 1443 c7 -76 3 -122 -11 -131 -33 -20 -28 -52 7 -52 24 0 30 30 30 150 0 83 -8 150 -18 150 -10 0 -13 -53 -8 -117z"/> <path d="M2969 1410 c0 -49 7 -90 15 -90 9 0 16 41 16 90 0 50 -7 90 -16 90 -8 0 -15 -40 -15 -90z"/> <path d="M482 1275 c3 -109 11 -99 23 30 4 41 0 75 -9 75 -9 0 -15 -47 -14 -105z"/> <path d="M2507 1250 c-11 -60 -13 -110 -4 -110 10 0 17 14 17 30 0 17 14 30 30 30 17 0 30 9 30 19 0 11 -13 15 -30 8 -16 -6 -30 -1 -30 11 0 12 14 22 30 22 17 0 30 14 30 30 0 17 14 30 30 30 17 0 30 9 30 20 0 11 -25 20 -57 20 -53 0 -58 -7 -76 -110z"/> <path d="M601 1270 c-3 -44 -10 -64 -15 -45 -18 68 -46 34 -46 -55 0 -67 8 -90 30 -90 17 0 30 14 30 30 0 18 19 30 48 30 38 0 46 8 38 39 -6 22 -21 34 -37 28 -18 -7 -29 13 -34 66 l-8 77 -6 -80z"/> <path d="M1139 1275 c0 -44 -1 -44 -30 -6 -27 36 -29 33 -29 -45 l0 -84 150 0 c148 0 150 1 150 51 0 46 3 49 30 22 17 -17 30 -53 30 -82 0 -32 11 -51 30 -51 20 0 30 20 30 60 0 40 -10 60 -30 60 -16 0 -30 14 -30 30 0 17 -13 30 -30 30 -16 0 -30 14 -30 30 0 17 -13 30 -30 30 -16 0 -30 -13 -30 -30 0 -20 -20 -30 -60 -30 -40 0 -60 10 -60 30 0 17 -13 30 -30 30 -18 0 -30 -19 -31 -45z"/> <path d="M840 1200 c0 -40 10 -60 30 -60 20 0 30 20 30 60 0 40 -10 60 -30 60 -20 0 -30 -20 -30 -60z"/> <path d="M2920 1201 c0 -21 -14 -52 -31 -70 -18 -17 -25 -31 -17 -31 21 0 -104 -122 -169 -165 l-53 -35 55 0 c36 0 55 11 55 30 0 17 14 30 30 30 17 0 30 14 30 30 0 17 14 30 30 30 17 0 30 14 30 30 0 17 14 30 30 30 22 0 30 22 30 80 0 44 -4 80 -10 80 -5 0 -10 -17 -10 -39z"/> <path d="M300 1020 c0 -93 7 -120 30 -120 17 0 30 -13 30 -30 0 -16 9 -30 21 -30 22 0 -7 69 -38 88 -10 6 -16 56 -14 111 1 56 -4 101 -13 101 -9 0 -16 -54 -16 -120z"/> <path d="M1080 930 c0 -20 20 -30 60 -30 40 0 60 10 60 30 0 20 -20 30 -60 30 -40 0 -60 -10 -60 -30z"/> <path d="M2620 841 c0 -11 -31 -51 -70 -90 -73 -73 -83 -91 -50 -91 11 0 20 14 20 30 0 17 14 30 30 30 17 0 30 14 30 30 0 17 14 30 30 30 17 0 30 18 30 40 0 22 -4 40 -10 40 -5 0 -10 -9 -10 -19z"/> <path d="M2320 707 c-38 -38 -88 -78 -110 -87 -35 -16 -34 -18 15 -19 36 -1 55 9 55 29 0 17 14 30 30 30 17 0 30 14 30 30 0 17 14 30 30 30 17 0 30 14 30 30 0 39 2 40 -80 -43z"/> <path d="M1380 435 c0 -8 68 -15 150 -15 83 0 150 7 150 15 0 9 -67 15 -150 15 -82 0 -150 -7 -150 -15z"/> <path d="M1630 380 l-140 -13 155 -3 c92 -3 155 4 155 16 0 11 -7 18 -15 16 -8 -1 -78 -9 -155 -16z"/> </g> </svg> 